<svg xmlns="http://www.w3.org/2000/svg" width="38" height="36" viewBox="0 0 38 36">
  <g id="instagram" transform="translate(0.723 0.036)">
    <path id="Path_36" data-name="Path 36" d="M17.178,9c2.222,0,2.5.008,3.371.049a6.025,6.025,0,0,1,1.986.38,4.175,4.175,0,0,1,2.392,2.392,6.041,6.041,0,0,1,.38,1.986c.038.872.049,1.149.049,3.371s-.008,2.5-.049,3.371a6.046,6.046,0,0,1-.38,1.986,4.175,4.175,0,0,1-2.392,2.392,6.041,6.041,0,0,1-1.986.38c-.872.038-1.149.049-3.371.049s-2.5-.008-3.371-.049a6.046,6.046,0,0,1-1.986-.38,4.175,4.175,0,0,1-2.392-2.392,6.02,6.02,0,0,1-.38-1.986C9.011,19.677,9,19.4,9,17.178s.008-2.5.049-3.371a6.02,6.02,0,0,1,.38-1.986,4.175,4.175,0,0,1,2.392-2.392,6.02,6.02,0,0,1,1.986-.38C14.679,9.011,14.956,9,17.178,9Zm0,4.089a4.089,4.089,0,1,0,2.891,1.2A4.089,4.089,0,0,0,17.178,13.089Zm5.316-.2a1.022,1.022,0,1,0-.3.723A1.022,1.022,0,0,0,22.494,12.885Zm-5.316,1.84a2.454,2.454,0,1,1-1.735.719A2.453,2.453,0,0,1,17.178,14.725Z" transform="translate(1.378 0.637)" fill="#fff"/>
    <path id="Ellipse_11" data-name="Ellipse 11" d="M18.5-.5A19.793,19.793,0,0,1,25.887.911a19.029,19.029,0,0,1,6.038,3.851A17.92,17.92,0,0,1,36,10.484a17.185,17.185,0,0,1,0,14.032,17.92,17.92,0,0,1-4.078,5.722,19.029,19.029,0,0,1-6.038,3.851,20.041,20.041,0,0,1-14.774,0,19.029,19.029,0,0,1-6.038-3.851A17.92,17.92,0,0,1,1,24.516,17.185,17.185,0,0,1,1,10.484,17.92,17.92,0,0,1,5.075,4.762,19.029,19.029,0,0,1,11.113.911,19.793,19.793,0,0,1,18.5-.5Zm0,35c9.925,0,18-7.626,18-17S28.425.5,18.5.5.5,8.126.5,17.5,8.575,34.5,18.5,34.5Z" transform="translate(-0.223 0.464)" fill="#fff"/>
  </g>
</svg>
