<svg xmlns="http://www.w3.org/2000/svg" width="36" height="36" viewBox="0 0 36 36">
  <g id="linkedin" transform="translate(0.5 0.036)">
    <path id="Ellipse_10" data-name="Ellipse 10" d="M17.5-.5a18,18,0,0,1,7.007,34.585A18,18,0,0,1,10.493.915,17.888,17.888,0,0,1,17.5-.5Zm0,35a17,17,0,1,0-17-17A17.019,17.019,0,0,0,17.5,34.5Z" transform="translate(0 0.464)" fill="#fff"/>
    <g id="Group_24" data-name="Group 24" transform="translate(8.762 8.469)">
      <path id="Path_31" data-name="Path 31" d="M25.85,25.851h0V18.958c0-3.388-.7-5.958-4.673-5.958a4.394,4.394,0,0,0-3.739,1.986h0V13.234H13.7V25.851h3.855V19.659c0-1.636.35-3.271,2.337-3.271s1.986,1.869,1.986,3.271v6.192Z" transform="translate(-7.041 -7.159)" fill="#fff"/>
      <path id="Path_32" data-name="Path 32" d="M8.3,13.3h3.855V25.8H8.3Z" transform="translate(-7.95 -7.108)" fill="#fff"/>
      <path id="Path_33" data-name="Path 33" d="M10.22,8a2.22,2.22,0,1,0,0,4.44,2.3,2.3,0,0,0,2.22-2.22A2.085,2.085,0,0,0,10.22,8Z" transform="translate(-8 -8)" fill="#fff"/>
    </g>
  </g>
</svg>
