<svg xmlns="http://www.w3.org/2000/svg" width="37.217" height="37.217" viewBox="0 0 37.217 37.217">
  <g id="twitter" transform="translate(0.5 0.5)">
    <path id="Path_34" data-name="Path 34" d="M27.133,10.943a8.275,8.275,0,0,1-2.376.639,4.116,4.116,0,0,0,1.815-2.274,8.147,8.147,0,0,1-2.618,1,4.129,4.129,0,0,0-7.14,2.824,4.734,4.734,0,0,0,.1.946A11.724,11.724,0,0,1,8.408,9.755a4.138,4.138,0,0,0,1.278,5.521,4.162,4.162,0,0,1-1.865-.525V14.8a4.127,4.127,0,0,0,3.307,4.05,4.37,4.37,0,0,1-1.086.14,5.482,5.482,0,0,1-.779-.063,4.133,4.133,0,0,0,3.857,2.862A8.269,8.269,0,0,1,8,23.556a8.445,8.445,0,0,1-1-.051,11.747,11.747,0,0,0,18.076-9.891c0-.179,0-.358-.012-.537A8.885,8.885,0,0,0,27.133,10.943Z" transform="translate(0.594 0.931)" fill="#fff"/>
    <path id="Path_35" data-name="Path 35" d="M18.109-.5a18.613,18.613,0,0,1,7.243,35.755A18.613,18.613,0,0,1,10.865.963,18.493,18.493,0,0,1,18.109-.5Zm0,36.217A17.609,17.609,0,1,0,.5,18.109,17.629,17.629,0,0,0,18.109,35.717Z" transform="translate(0)" fill="#fff"/>
  </g>
</svg>
