<svg xmlns="http://www.w3.org/2000/svg" width="39" height="36" viewBox="0 0 39 36">
  <g id="youtube" transform="translate(0.833 0.036)">
    <path id="Path_37" data-name="Path 37" d="M26.585,12.19a2.508,2.508,0,0,0-1.768-1.77C23.256,10,17,10,17,10s-6.255,0-7.816.417a2.5,2.5,0,0,0-1.768,1.77A26.145,26.145,0,0,0,7,17.01a26.112,26.112,0,0,0,.417,4.82A2.507,2.507,0,0,0,9.186,23.6c1.56.42,7.816.42,7.816.42s6.255,0,7.816-.42a2.5,2.5,0,0,0,1.768-1.77A26.114,26.114,0,0,0,27,17.01,26.114,26.114,0,0,0,26.585,12.19ZM15.014,20V14.018l5.179,2.969Z" transform="translate(1.684 0.805)" fill="#fff"/>
    <path id="Ellipse_12" data-name="Ellipse 12" d="M19-.5A20.786,20.786,0,0,1,26.577.909a19.6,19.6,0,0,1,6.2,3.849,17.935,17.935,0,0,1,4.188,5.722,16.785,16.785,0,0,1,0,14.041,17.935,17.935,0,0,1-4.187,5.722,19.6,19.6,0,0,1-6.2,3.849,21.074,21.074,0,0,1-15.154,0,19.6,19.6,0,0,1-6.2-3.849A17.935,17.935,0,0,1,1.039,24.52a16.785,16.785,0,0,1,0-14.041A17.935,17.935,0,0,1,5.226,4.758a19.6,19.6,0,0,1,6.2-3.849A20.786,20.786,0,0,1,19-.5Zm0,35c10.2,0,18.5-7.626,18.5-17S29.2.5,19,.5.5,8.126.5,17.5,8.8,34.5,19,34.5Z" transform="translate(-0.333 0.464)" fill="#fff"/>
  </g>
</svg>
