<svg width="24" height="37" viewBox="0 0 24 37" fill="none" xmlns="http://www.w3.org/2000/svg">
<path d="M16.1328 31.629C16.1328 32.4446 16.1328 33.2105 16.1328 34.0161C16.282 34.0161 16.4113 34.0161 16.5406 34.0161C17.3562 34.0161 18.1817 34.0161 18.9973 34.0161C19.4648 34.0161 19.6836 34.2349 19.6935 34.7024C19.7035 35.2495 19.7035 35.7965 19.6935 36.3435C19.6836 36.7613 19.4648 36.9801 19.047 37C18.9774 37 18.8979 37 18.8282 37C14.243 37 9.6578 37 5.06263 37C4.34651 37 4.17742 36.8309 4.17742 36.1247C4.17742 35.6672 4.17742 35.2097 4.17742 34.7422C4.17742 34.225 4.38629 34.0161 4.90349 34.0161C5.71909 34.0161 6.54462 34.0161 7.36022 34.0161C7.47957 34.0161 7.59892 34.0161 7.73817 34.0161C7.73817 33.2105 7.73817 32.4446 7.73817 31.629C7.60887 31.629 7.46962 31.629 7.34032 31.629C5.1621 31.629 2.99382 31.629 0.815592 31.629C0.179032 31.629 0 31.4401 0 30.8035C0 20.8075 0 10.8116 0 0.815591C0.00994624 0.188978 0.198925 0 0.825538 0C8.23548 0 15.6454 0 23.0554 0C23.6919 0 23.8809 0.188978 23.8809 0.815591C23.8809 10.8116 23.8809 20.8075 23.8809 30.8035C23.8809 31.4599 23.7019 31.639 23.0355 31.639C20.8871 31.639 18.7387 31.639 16.5804 31.639C16.4511 31.629 16.3118 31.629 16.1328 31.629ZM1.22339 30.4056C8.39462 30.4056 15.536 30.4056 22.6575 30.4056C22.6575 20.6583 22.6575 10.9309 22.6575 1.21344C15.4962 1.21344 8.36479 1.21344 1.22339 1.21344C1.22339 10.9508 1.22339 20.6683 1.22339 30.4056ZM14.9094 31.6589C12.9102 31.6589 10.9508 31.6589 8.9914 31.6589C8.9914 32.4546 8.9914 33.2304 8.9914 33.9962C10.9806 33.9962 12.9401 33.9962 14.9094 33.9962C14.9094 33.2105 14.9094 32.4446 14.9094 31.6589ZM18.4901 35.2395C14.1038 35.2395 9.74731 35.2395 5.39086 35.2395C5.39086 35.4384 5.39086 35.6075 5.39086 35.7866C9.7672 35.7866 14.1137 35.7866 18.4901 35.7866C18.4901 35.5976 18.4901 35.4285 18.4901 35.2395Z" fill="#E5282A"/>
<path d="M2.39648 15.7747C2.39648 11.5973 2.39648 7.41988 2.39648 3.24246C2.39648 2.55617 2.56557 2.38708 3.25186 2.38708C9.04057 2.38708 14.8392 2.38708 20.6279 2.38708C21.3142 2.38708 21.4833 2.55617 21.4833 3.24246C21.4833 11.6172 21.4833 20.0019 21.4833 28.3766C21.4833 29.0629 21.3043 29.232 20.6279 29.232C14.8392 29.232 9.04057 29.232 3.25186 29.232C2.56557 29.232 2.39648 29.0629 2.39648 28.3766C2.39648 24.1793 2.39648 19.982 2.39648 15.7747ZM3.60993 28.0185C9.18976 28.0185 14.7398 28.0185 20.2699 28.0185C20.2699 19.8626 20.2699 11.7266 20.2699 3.60053C14.7 3.60053 9.15992 3.60053 3.60993 3.60053C3.60993 11.7465 3.60993 19.8726 3.60993 28.0185Z" fill="#E5282A"/>
</svg>
