<svg width="357" height="295" viewBox="0 0 357 295" fill="none" xmlns="http://www.w3.org/2000/svg">
<path d="M14.1174 105.284H30.4225V116.646H1.57275V73.4159H30.1066V84.6548H14.1215V89.3484H28.5461V100.466H14.1215L14.1174 105.284ZM27.158 61.0676L19.8846 70.3303H8.97248L13.9869 61.0676H27.158Z" fill="#1F2E54"/>
<path d="M47.9804 104.667H62.405V116.646H35.4404V73.42H47.9804V104.667Z" fill="#1F2E54"/>
<path d="M66.1626 73.416H78.7072V116.642H66.1626V73.416Z" fill="#1F2E54"/>
<path d="M115.704 73.416V85.3962H105.356V116.642H92.8151V85.3962H82.4668V73.416H115.704Z" fill="#1F2E54"/>
<path d="M132.01 105.288H148.316V116.65H119.47V73.4251H148.004V84.663H132.019V89.3566H146.444V100.474H132.019L132.01 105.288Z" fill="#1F2E54"/>
<path d="M47.3543 133.974V177.204H34.8097V156.144L25.0293 172.324H23.9017L14.1172 156.144V177.204H1.57666V133.974H14.1172L24.4655 151.575L34.8138 133.974H47.3543Z" fill="#1F2E54"/>
<path d="M66.163 165.833H82.4686V177.196H53.623V133.965H82.1569V145.208H66.1718V149.902H80.5964V161.016H66.1718L66.163 165.833ZM79.2042 121.617L71.9308 130.884H61.0187L66.0372 121.617H79.2042Z" fill="#1F2E54"/>
<path d="M105.684 133.973C108.519 133.907 111.336 134.426 113.955 135.496C116.574 136.567 118.937 138.164 120.891 140.187C122.904 142.222 124.482 144.634 125.531 147.28C126.581 149.926 127.082 152.753 127.004 155.593C127.082 158.433 126.582 161.261 125.532 163.908C124.482 166.554 122.904 168.967 120.891 171.003C118.937 173.026 116.574 174.623 113.955 175.693C111.336 176.763 108.519 177.283 105.684 177.217H87.4985V133.987L105.684 133.973ZM105.684 165.22C106.871 165.254 108.051 165.03 109.141 164.566C110.231 164.102 111.205 163.409 111.994 162.535C113.692 160.617 114.579 158.131 114.472 155.589C114.579 153.046 113.692 150.56 111.994 148.642C111.205 147.768 110.231 147.074 109.141 146.61C108.051 146.146 106.871 145.922 105.684 145.954H100.666V165.22H105.684Z" fill="#1F2E54"/>
<path d="M131.695 133.974H144.235V177.204H131.695V133.974Z" fill="#1F2E54"/>
<path d="M175.906 177.204L174.4 171.645H161.734L160.228 177.204H146.746L160.729 133.974H175.402L189.389 177.204H175.906ZM164.43 161.765H171.708L168.069 148.485L164.43 161.765Z" fill="#1F2E54"/>
<path d="M22.9599 235.993C19.9153 236.081 16.8847 235.551 14.0576 234.435C11.2305 233.319 8.66756 231.641 6.52846 229.506C4.38805 227.395 2.70634 224.878 1.58538 222.107C0.464418 219.336 -0.0725542 216.369 0.00786573 213.387C-0.0725542 210.406 0.464418 207.44 1.58538 204.669C2.70634 201.898 4.38805 199.38 6.52846 197.27C8.66807 195.136 11.2316 193.458 14.0586 192.343C16.8857 191.227 19.9157 190.698 22.9599 190.787C26.8886 190.755 30.7574 191.734 34.1832 193.628C37.5093 195.424 40.2819 198.071 42.2094 201.288L31.2973 207.464C30.5633 206.043 29.4034 204.879 27.9743 204.13C26.4398 203.296 24.7122 202.868 22.9599 202.887C21.5642 202.833 20.1726 203.069 18.8759 203.581C17.5792 204.092 16.4062 204.866 15.4338 205.853C14.4703 206.858 13.719 208.042 13.2236 209.335C12.7283 210.628 12.499 212.006 12.5484 213.387C12.4992 214.769 12.7288 216.146 13.2242 217.44C13.7195 218.733 14.4705 219.917 15.4338 220.923C16.4068 221.909 17.5797 222.683 18.8764 223.193C20.1731 223.704 21.5646 223.939 22.9599 223.885C24.7239 223.912 26.4642 223.484 28.0077 222.642C29.4374 221.874 30.589 220.687 31.3019 219.245L42.2141 225.421C40.3009 228.665 37.5256 231.335 34.1873 233.143C30.7607 235.039 26.8906 236.022 22.9599 235.993Z" fill="#1F2E54"/>
<path d="M82.3123 229.478C80.1462 231.604 77.5663 233.278 74.7267 234.398C71.8871 235.517 68.8465 236.06 65.7885 235.994C62.7304 236.06 59.6904 235.518 56.8508 234.399C54.0111 233.279 51.4305 231.605 49.2646 229.478C47.074 227.401 45.345 224.899 44.1865 222.13C43.028 219.362 42.4652 216.386 42.534 213.392C42.4648 210.398 43.0274 207.423 44.186 204.653C45.3445 201.884 47.0737 199.382 49.2646 197.304C51.4307 195.177 54.0112 193.504 56.8508 192.384C59.6904 191.264 62.7304 190.721 65.7885 190.788C68.8464 190.723 71.8863 191.266 74.7257 192.386C77.565 193.506 80.1454 195.179 82.3123 197.304C84.5033 199.382 86.2329 201.884 87.3915 204.653C88.55 207.423 89.1126 210.398 89.0434 213.392C89.1123 216.386 88.5495 219.362 87.3909 222.13C86.2324 224.899 84.5029 227.401 82.3123 229.478ZM58.1073 220.894C59.1126 221.883 60.3126 222.659 61.6336 223.174C62.9546 223.689 64.3684 223.933 65.7885 223.89C67.2085 223.933 68.6224 223.689 69.9433 223.174C71.2642 222.659 72.4646 221.883 73.4701 220.894C74.4703 219.914 75.2558 218.743 75.7789 217.452C76.3019 216.161 76.5515 214.778 76.5116 213.388C76.551 211.999 76.3014 210.617 75.7784 209.326C75.2553 208.035 74.4699 206.863 73.4701 205.882C72.4643 204.894 71.2642 204.12 69.9433 203.605C68.6224 203.09 67.2085 202.846 65.7885 202.888C64.3684 202.845 62.9546 203.089 61.6336 203.604C60.3127 204.119 59.1129 204.894 58.1073 205.882C57.107 206.863 56.3211 208.035 55.7981 209.326C55.275 210.617 55.0257 211.999 55.0658 213.388C55.0252 214.778 55.2739 216.161 55.797 217.452C56.3201 218.743 57.1066 219.914 58.1073 220.894Z" fill="#1F2E54"/>
<path d="M117.588 191.777H130.133V235.003H120.1L106.302 215.244V235.003H93.7617V191.777H103.795L117.593 211.54L117.588 191.777Z" fill="#1F2E54"/>
<path d="M160.232 191.777H172.772V235.003H162.739L148.941 215.244V235.003H136.401V191.777H146.434L160.232 211.54V191.777Z" fill="#1F2E54"/>
<path d="M191.591 223.645H207.896V235.007H179.055V191.782H207.589V203.02H191.603V207.713H206.028V218.827H191.603L191.591 223.645Z" fill="#1F2E54"/>
<path d="M233.98 235.993C230.935 236.082 227.905 235.551 225.078 234.435C222.251 233.319 219.688 231.641 217.549 229.506C215.407 227.396 213.724 224.879 212.602 222.108C211.481 219.337 210.944 216.369 211.024 213.387C210.944 210.405 211.481 207.439 212.602 204.668C213.724 201.897 215.407 199.38 217.549 197.27C219.688 195.135 222.251 193.458 225.078 192.343C227.905 191.227 230.936 190.698 233.98 190.787C237.909 190.755 241.778 191.734 245.203 193.628C248.529 195.424 251.302 198.071 253.23 201.288L242.317 207.464C241.584 206.043 240.423 204.879 238.994 204.13C237.458 203.296 235.729 202.867 233.975 202.887C232.58 202.833 231.189 203.07 229.892 203.581C228.595 204.092 227.422 204.866 226.45 205.853C225.486 206.858 224.735 208.042 224.239 209.335C223.744 210.629 223.514 212.006 223.564 213.387C223.515 214.769 223.744 216.146 224.24 217.44C224.735 218.733 225.486 219.917 226.45 220.923C227.423 221.909 228.596 222.683 229.892 223.193C231.189 223.704 232.58 223.939 233.975 223.885C235.739 223.912 237.48 223.484 239.024 222.642C240.454 221.875 241.605 220.687 242.317 219.245L253.23 225.421C251.316 228.665 248.542 231.335 245.203 233.143C241.778 235.039 237.909 236.021 233.98 235.993Z" fill="#1F2E54"/>
<path d="M287.725 191.777V203.757H277.377V235.003H264.832V203.757H254.488V191.777H287.725Z" fill="#1F2E54"/>
<path d="M168.065 88.8059C168.065 88.8059 253.642 71.2748 253.752 71.1299L306.079 0C306.079 0 288.239 74.8704 289.253 75.1438L356.071 93.8302L271.853 110.843C270.959 111.018 270.166 111.52 269.632 112.247L218.992 181.33L270.208 73.1798C270.259 73.0763 247.324 109.24 247.244 109.327L168.065 88.8059Z" fill="#E5282A"/>
<path d="M10.192 258.448L8.656 266.992H13.616C16.656 266.992 18.704 265.072 18.704 261.84C18.704 259.6 17.36 258.448 15.152 258.448H10.192ZM8.304 268.976L6.864 277.168C6.768 277.776 6.192 278.256 5.584 278.256C4.976 278.256 4.592 277.776 4.688 277.168L8.144 257.552C8.24 256.944 8.816 256.464 9.424 256.464H15.792C18.768 256.464 20.944 258.096 20.944 261.456C20.944 266.384 17.616 268.976 13.584 268.976H8.304ZM26.8453 276.56C31.0693 276.56 32.7013 272.72 32.7013 268.752C32.7013 266.064 31.3573 264.88 28.9253 264.88C24.7013 264.88 23.0693 268.72 23.0693 272.688C23.0693 275.376 24.4133 276.56 26.8453 276.56ZM26.5253 278.416C23.0373 278.416 20.9893 276.656 20.9893 272.944C20.9893 267.952 23.3573 263.024 29.2453 263.024C32.7333 263.024 34.7812 264.784 34.7812 268.496C34.7812 273.488 32.4133 278.416 26.5253 278.416ZM46.096 267.376L41.36 277.52C41.168 277.968 40.752 278.256 40.24 278.256C39.792 278.256 39.472 278 39.408 277.584L37.008 264.656C36.976 264.496 36.944 264.336 36.944 264.24C36.944 263.664 37.392 263.216 37.968 263.216C38.448 263.216 38.896 263.568 38.96 263.984L40.848 274.48L45.68 263.984C45.872 263.6 46.224 263.216 46.768 263.216C47.376 263.216 47.632 263.6 47.664 263.92L48.848 274.48L54.416 263.792C54.64 263.376 54.992 263.216 55.344 263.216C55.92 263.216 56.368 263.664 56.368 264.24C56.368 264.464 56.336 264.592 56.208 264.816L49.2 277.584C48.976 278 48.56 278.256 48.112 278.256C47.664 278.256 47.312 277.968 47.248 277.52L46.096 267.376ZM56.208 272.944C56.208 267.088 59.408 263.024 64.624 263.024C67.824 263.024 69.328 264.656 69.328 266.512C69.328 269.904 66 271.696 58.352 271.696C58.256 272.176 58.256 272.496 58.256 272.688C58.256 275.6 59.632 276.528 62.192 276.528C63.824 276.528 65.104 275.888 66.096 275.184C66.32 275.024 66.48 274.96 66.704 274.96C67.216 274.96 67.632 275.344 67.632 275.856C67.632 276.272 67.376 276.496 67.152 276.688C65.872 277.744 64.112 278.416 61.808 278.416C58.288 278.416 56.208 276.656 56.208 272.944ZM58.576 270.032C64.496 270.032 67.28 268.784 67.28 266.736C67.28 265.808 66.448 264.88 64.304 264.88C61.136 264.88 59.088 267.248 58.576 270.032ZM75.31 264.24L75.054 265.648C75.95 264.176 77.742 263.088 79.95 263.088C80.43 263.088 80.782 263.472 80.782 263.952C80.782 264.56 80.206 265.072 79.598 265.072C76.654 265.072 74.798 267.12 74.286 270.064L73.006 277.232C72.91 277.808 72.398 278.256 71.822 278.256C71.246 278.256 70.862 277.808 70.958 277.232L73.262 264.24C73.358 263.664 73.838 263.216 74.446 263.216C75.022 263.216 75.406 263.664 75.31 264.24ZM80.5205 272.944C80.5205 267.088 83.7205 263.024 88.9365 263.024C92.1365 263.024 93.6405 264.656 93.6405 266.512C93.6405 269.904 90.3125 271.696 82.6645 271.696C82.5685 272.176 82.5685 272.496 82.5685 272.688C82.5685 275.6 83.9445 276.528 86.5045 276.528C88.1365 276.528 89.4165 275.888 90.4085 275.184C90.6325 275.024 90.7925 274.96 91.0165 274.96C91.5285 274.96 91.9445 275.344 91.9445 275.856C91.9445 276.272 91.6885 276.496 91.4645 276.688C90.1845 277.744 88.4245 278.416 86.1205 278.416C82.6005 278.416 80.5205 276.656 80.5205 272.944ZM82.8885 270.032C88.8085 270.032 91.5925 268.784 91.5925 266.736C91.5925 265.808 90.7605 264.88 88.6165 264.88C85.4485 264.88 83.4005 267.248 82.8885 270.032ZM105.991 272.112L106.791 267.696C106.791 267.696 106.055 264.88 103.047 264.88C99.4625 264.88 97.3185 267.984 97.3185 272.656C97.3185 275.408 98.6945 276.56 100.999 276.56C103.367 276.56 105.447 275.152 105.991 272.112ZM103.239 263.024C105.287 263.024 106.663 264.08 107.239 265.104L108.807 256.24C108.903 255.664 109.383 255.216 109.991 255.216C110.599 255.216 110.951 255.664 110.855 256.24L108.039 272.112C107.303 276.336 104.455 278.416 100.647 278.416C97.2865 278.416 95.2385 276.624 95.2385 272.944C95.2385 267.12 98.2465 263.024 103.239 263.024ZM122.671 267.696L121.871 272.112C121.775 272.656 121.775 272.912 121.775 273.264C121.775 275.504 123.055 276.56 125.199 276.56C129.007 276.56 131.055 273.296 131.055 268.752C131.055 266.064 129.711 264.88 127.279 264.88C124.271 264.88 122.671 267.696 122.671 267.696ZM127.823 263.024C131.087 263.024 133.135 264.88 133.135 268.496C133.135 274.608 129.935 278.416 124.879 278.416C121.679 278.416 119.695 276.816 119.695 273.616C119.695 273.136 119.727 272.72 119.823 272.112L122.639 256.24C122.735 255.664 123.215 255.216 123.823 255.216C124.431 255.216 124.783 255.664 124.687 256.24L123.119 265.104C124.047 264.08 125.615 263.024 127.823 263.024ZM137.657 263.216C138.233 263.216 138.617 263.664 138.521 264.24L137.305 271.12C137.209 271.664 137.177 271.92 137.177 272.304C137.177 273.84 137.913 274.992 140.505 274.992C143.513 274.992 144.761 273.072 145.113 271.12L146.329 264.24C146.425 263.664 146.937 263.216 147.545 263.216C148.121 263.216 148.473 263.664 148.377 264.24L145.881 278.384C145.145 282.544 142.713 284.432 138.265 284.432C135.673 284.432 134.105 283.152 134.105 281.424C134.105 279.184 135.993 277.968 139.705 276.944C136.345 276.752 135.097 275.024 135.097 272.848C135.097 272.304 135.161 271.696 135.257 271.12L136.473 264.24C136.569 263.664 137.049 263.216 137.657 263.216ZM136.185 281.104C136.185 282.16 137.241 282.64 138.649 282.64C141.945 282.64 143.257 281.008 143.769 278.512L144.537 274.704C142.361 278.128 136.185 277.904 136.185 281.104ZM169.616 278H158.992C158.384 278 158 277.52 158.096 276.912L161.52 257.552C161.616 256.944 162.192 256.464 162.8 256.464H173.072C173.552 256.464 173.904 256.848 173.904 257.328C173.904 257.936 173.328 258.448 172.72 258.448H163.536L162.192 266.16H169.232C169.712 266.16 170.064 266.544 170.064 267.024C170.064 267.632 169.456 268.144 168.88 268.144H161.84L160.432 276.016H169.968C170.448 276.016 170.8 276.4 170.8 276.88C170.8 277.488 170.224 278 169.616 278ZM179.01 255.216C179.618 255.216 179.97 255.664 179.874 256.24L176.642 274.512C176.578 274.896 176.578 275.056 176.578 275.248C176.578 276.016 176.994 276.336 177.634 276.336C178.114 276.336 178.434 276.688 178.434 277.168C178.434 277.776 177.89 278.256 177.282 278.256C175.458 278.256 174.498 277.36 174.498 275.568C174.498 275.248 174.53 274.896 174.594 274.512L177.826 256.24C177.922 255.664 178.402 255.216 179.01 255.216ZM185.434 264.24L183.13 277.232C183.034 277.808 182.554 278.256 181.946 278.256C181.338 278.256 180.986 277.808 181.082 277.232L183.386 264.24C183.482 263.664 183.962 263.216 184.57 263.216C185.178 263.216 185.53 263.664 185.434 264.24ZM185.562 257.712C186.234 257.712 186.618 258.064 186.618 258.608C186.618 259.6 186.074 260.208 185.146 260.208C184.474 260.208 184.09 259.856 184.09 259.312C184.09 258.32 184.634 257.712 185.562 257.712ZM190.502 263.472L191.11 260.112C191.206 259.568 191.75 259.088 192.326 259.088C192.934 259.088 193.254 259.568 193.158 260.112L192.55 263.472H194.662C195.142 263.472 195.462 263.824 195.462 264.272C195.462 264.912 194.918 265.392 194.31 265.392H192.262L190.694 274.224C190.662 274.384 190.63 274.64 190.63 274.8C190.63 275.824 191.238 276.336 192.166 276.336C192.646 276.336 192.998 276.688 192.998 277.168C192.998 277.776 192.422 278.256 191.814 278.256C189.638 278.256 188.55 277.008 188.55 275.184C188.55 274.896 188.582 274.544 188.646 274.224L190.214 265.392H188.934C188.454 265.392 188.134 265.04 188.134 264.592C188.134 263.952 188.678 263.472 189.286 263.472H190.502ZM196.239 272.944C196.239 267.088 199.439 263.024 204.655 263.024C207.855 263.024 209.359 264.656 209.359 266.512C209.359 269.904 206.031 271.696 198.383 271.696C198.287 272.176 198.287 272.496 198.287 272.688C198.287 275.6 199.663 276.528 202.223 276.528C203.855 276.528 205.135 275.888 206.127 275.184C206.351 275.024 206.511 274.96 206.735 274.96C207.247 274.96 207.663 275.344 207.663 275.856C207.663 276.272 207.407 276.496 207.183 276.688C205.903 277.744 204.143 278.416 201.839 278.416C198.319 278.416 196.239 276.656 196.239 272.944ZM198.607 270.032C204.527 270.032 207.311 268.784 207.311 266.736C207.311 265.808 206.479 264.88 204.335 264.88C201.167 264.88 199.119 267.248 198.607 270.032ZM224.598 258.448L223.126 266.704H228.47C231.318 266.704 233.11 264.496 233.11 261.872C233.11 259.888 231.862 258.448 229.846 258.448H224.598ZM222.774 268.688L221.27 277.168C221.174 277.776 220.63 278.256 219.99 278.256C219.414 278.256 218.998 277.776 219.094 277.168L222.55 257.552C222.646 256.944 223.222 256.464 223.83 256.464H230.198C233.366 256.464 235.35 258.704 235.35 261.616C235.35 265.328 232.566 268.688 228.438 268.688L232.886 276.592C232.982 276.752 233.046 276.976 233.046 277.168C233.046 277.776 232.566 278.256 231.958 278.256C231.638 278.256 231.222 278.096 231.03 277.744L226.198 268.688H222.774ZM236.083 272.944C236.083 267.088 239.283 263.024 244.499 263.024C247.699 263.024 249.203 264.656 249.203 266.512C249.203 269.904 245.875 271.696 238.227 271.696C238.131 272.176 238.131 272.496 238.131 272.688C238.131 275.6 239.507 276.528 242.067 276.528C243.699 276.528 244.979 275.888 245.971 275.184C246.195 275.024 246.355 274.96 246.579 274.96C247.091 274.96 247.507 275.344 247.507 275.856C247.507 276.272 247.251 276.496 247.027 276.688C245.747 277.744 243.987 278.416 241.683 278.416C238.163 278.416 236.083 276.656 236.083 272.944ZM238.451 270.032C244.371 270.032 247.155 268.784 247.155 266.736C247.155 265.808 246.323 264.88 244.179 264.88C241.011 264.88 238.963 267.248 238.451 270.032ZM242.067 261.36C241.715 261.008 241.843 260.656 242.131 260.368L245.459 256.912C245.811 256.56 246.291 256.56 246.707 257.008C247.123 257.456 247.027 257.904 246.643 258.256L243.059 261.296C242.739 261.584 242.419 261.712 242.067 261.36ZM261.265 272.336L261.777 269.328C261.841 268.912 261.873 268.528 261.873 268.176C261.873 265.936 260.433 264.88 258.321 264.88C254.641 264.88 252.785 267.536 252.785 270.896C252.785 274 254.161 275.152 256.561 275.152C259.825 275.152 261.265 272.336 261.265 272.336ZM252.529 281.104C252.529 282.16 253.585 282.64 254.993 282.64C258.289 282.64 259.601 281.008 260.113 278.512L260.881 274.704C258.705 278.128 252.529 277.904 252.529 281.104ZM263.825 269.328L262.225 278.384C261.489 282.544 259.057 284.432 254.609 284.432C252.017 284.432 250.449 283.152 250.449 281.424C250.449 279.184 252.337 277.936 256.017 276.944C252.785 276.848 250.705 275.056 250.705 271.312C250.705 266.288 253.521 263.024 258.641 263.024C261.809 263.024 263.953 264.624 263.953 267.824C263.953 268.304 263.921 268.784 263.825 269.328ZM269.997 264.24L267.693 277.232C267.597 277.808 267.117 278.256 266.509 278.256C265.901 278.256 265.549 277.808 265.645 277.232L267.949 264.24C268.045 263.664 268.525 263.216 269.133 263.216C269.741 263.216 270.093 263.664 269.997 264.24ZM270.125 257.712C270.797 257.712 271.181 258.064 271.181 258.608C271.181 259.6 270.637 260.208 269.709 260.208C269.037 260.208 268.653 259.856 268.653 259.312C268.653 258.32 269.197 257.712 270.125 257.712ZM271.864 272.944C271.864 267.088 275.064 263.024 280.28 263.024C283.48 263.024 284.984 264.656 284.984 266.512C284.984 269.904 281.656 271.696 274.008 271.696C273.912 272.176 273.912 272.496 273.912 272.688C273.912 275.6 275.288 276.528 277.848 276.528C279.48 276.528 280.76 275.888 281.752 275.184C281.976 275.024 282.136 274.96 282.36 274.96C282.872 274.96 283.288 275.344 283.288 275.856C283.288 276.272 283.032 276.496 282.808 276.688C281.528 277.744 279.768 278.416 277.464 278.416C273.944 278.416 271.864 276.656 271.864 272.944ZM274.232 270.032C280.152 270.032 282.936 268.784 282.936 266.736C282.936 265.808 282.104 264.88 279.96 264.88C276.792 264.88 274.744 267.248 274.232 270.032Z" fill="#1F2E54"/>
</svg>
