<svg width="45" height="37" viewBox="0 0 45 37" fill="none" xmlns="http://www.w3.org/2000/svg">
<path d="M31.4362 12.8207C31.4464 13.2207 31.4191 13.6207 31.3546 14.0155L29.4577 16.1486V2.02194H1.97482V29.6522H17.1022C16.9195 30.2944 16.7982 30.8341 16.5993 31.3435C16.5424 31.4279 16.4667 31.4977 16.3782 31.5474C16.2897 31.5972 16.191 31.6254 16.0898 31.6299C11.102 31.6453 6.11546 31.6468 1.12999 31.6344C0.321491 31.6316 0.0124961 31.2461 0.00858495 30.3433C0.00113505 27.1721 -0.00145959 24.0016 0.00077538 20.8318C0.00077538 14.5748 0.0022629 8.31777 0.00524286 2.06077V1.44956C0.0125065 0.267645 0.265051 0.00312675 1.4155 0.00200112C3.50576 -0.0025014 5.59602 0.00200112 7.68628 0.00200112H29.7482C31.2898 0.00200112 31.4122 0.128637 31.4122 1.71015C31.4133 5.41234 31.3848 9.11679 31.4362 12.8207Z" fill="#E5282A"/>
<path d="M44.4644 13.6396C43.062 12.2191 41.6554 10.8023 40.2448 9.38927C39.391 8.5276 39.0189 8.51972 38.1774 9.37238C34.6892 12.9102 31.2143 16.4605 27.7155 19.9865C24.9933 22.7314 22.2443 25.4458 19.5115 28.18C19.2746 28.3681 19.0846 28.6094 18.9566 28.8846C18.2733 31.1922 17.6084 33.5036 16.9815 35.8269C16.9474 35.9755 16.9489 36.1302 16.986 36.2781C17.023 36.426 17.0945 36.5629 17.1945 36.6775C17.2944 36.792 17.4201 36.881 17.5609 36.9369C17.7018 36.9929 17.8539 37.0143 18.0045 36.9993C18.0638 36.9869 18.1873 36.9644 18.3068 36.9306C20.4591 36.3115 22.6158 35.6992 24.762 35.0547C25.0689 34.9521 25.3468 34.7766 25.5722 34.5431C31.8823 28.2055 38.1852 21.8607 44.4811 15.5088C45.1818 14.8013 45.1762 14.3612 44.4644 13.6396ZM19.359 34.5764C19.6993 33.3826 20.0015 32.3251 20.3038 31.2653L22.6209 33.6207C21.6179 33.9117 20.5854 34.2162 19.3562 34.5741L19.359 34.5764ZM24.7016 32.5255C23.5841 31.3998 22.4829 30.2967 21.3313 29.1396C26.0333 24.4078 30.7776 19.6346 35.5641 14.8199C36.6962 15.9511 37.8115 17.0638 38.9468 18.1968C34.1778 22.9923 29.4291 27.7678 24.7011 32.5232L24.7016 32.5255ZM40.328 16.8342C39.2535 15.6832 38.1802 14.5351 37.1342 13.4162L39.1853 11.4098C40.2039 12.4268 41.3209 13.5412 42.4529 14.669L40.328 16.8342Z" fill="#E5282A"/>
<path d="M15.7046 9.92842H7.25525C7.0541 9.92842 6.85238 9.93629 6.65179 9.92222C6.52311 9.92198 6.39578 9.89595 6.27717 9.84565C6.15857 9.79534 6.05107 9.72177 5.96097 9.62922C5.87088 9.53666 5.79999 9.42697 5.7524 9.30654C5.7048 9.1861 5.68145 9.05733 5.68375 8.92772C5.68605 8.79812 5.71393 8.67027 5.76577 8.55163C5.8176 8.43298 5.89234 8.32592 5.98566 8.23666C6.07898 8.1474 6.18902 8.07774 6.30933 8.03173C6.42964 7.98573 6.55783 7.96429 6.68644 7.96868C8.06933 7.95123 9.45221 7.96082 10.8351 7.96082H24.112C24.2628 7.96082 24.4137 7.96082 24.5645 7.96082C25.3155 7.97714 25.7513 8.32721 25.7636 8.92379C25.7764 9.54739 25.3278 9.91378 24.5299 9.92785C24.3064 9.93179 24.0773 9.92785 23.851 9.92785L15.7046 9.92842Z" fill="#E5282A"/>
<path d="M15.7076 16.7903C12.8201 16.7903 9.93249 16.7942 7.04714 16.7846C6.75166 16.8262 6.45064 16.7745 6.18556 16.6366C6.0485 16.5234 5.93687 16.3822 5.85807 16.2223C5.77928 16.0624 5.73513 15.8875 5.72852 15.7091C5.78718 15.3894 6.15707 15.099 6.44594 14.8649C6.57221 14.7624 6.83704 14.8232 7.03595 14.8232C12.8014 14.8232 18.5671 14.8232 24.333 14.8232C24.4587 14.8232 24.5849 14.8232 24.7106 14.8232C24.8458 14.813 24.9816 14.8312 25.1093 14.8767C25.2371 14.9222 25.3542 14.9939 25.453 15.0873C25.5518 15.1807 25.6303 15.2937 25.6835 15.4193C25.7367 15.5449 25.7633 15.6802 25.7619 15.8167C25.7604 15.9532 25.7308 16.0879 25.6749 16.2123C25.619 16.3366 25.5381 16.4479 25.4373 16.5392C25.3365 16.6304 25.2179 16.6995 25.0892 16.7421C24.9605 16.7848 24.8243 16.8 24.6894 16.7869C23.3552 16.7976 22.0209 16.7824 20.6866 16.7812C19.0279 16.7812 17.3692 16.7812 15.7104 16.7812L15.7076 16.7903Z" fill="#E5282A"/>
<path d="M12.7452 23.6544C10.8058 23.6544 8.86641 23.6583 6.92646 23.6544C6.09729 23.6544 5.68099 23.3105 5.68658 22.6694C5.69217 22.0284 6.11907 21.6895 6.94266 21.6884C10.8468 21.6847 14.7509 21.6847 18.655 21.6884C19.4691 21.6884 19.9005 22.0481 19.8954 22.6857C19.8904 23.3234 19.478 23.6532 18.6394 23.6555C16.6743 23.6583 14.7097 23.6549 12.7452 23.6544Z" fill="#E5282A"/>
</svg>
