<svg width="45" height="38" viewBox="0 0 45 38" fill="none" xmlns="http://www.w3.org/2000/svg">
<path d="M35.0627 37.92C35.0627 30.7042 35.0892 23.6022 35.0531 16.5001C35.0283 11.5439 32.9484 7.67394 28.687 5.20231C26.8177 4.10721 24.6991 3.52522 22.5403 3.51376C20.3816 3.5023 18.2571 4.06175 16.3766 5.13695C14.4961 6.21215 12.9244 7.76594 11.8167 9.64505C10.7089 11.5242 10.1034 13.6637 10.0597 15.8526C9.88663 22.4882 10.0156 29.132 10.01 35.7718C10.01 36.4908 10.01 37.2099 10.01 37.8932C4.79195 38.6488 0.517654 35.32 0.132289 30.2695C-0.034805 27.9953 -0.0436069 25.7119 0.105883 23.4364C0.329411 19.9207 2.15045 17.4735 5.30868 15.9565C5.65395 15.7782 5.95988 15.5305 6.2078 15.2286C6.45571 14.9266 6.64047 14.5766 6.75083 14.1999C8.33876 5.57444 14.6224 -0.0716259 22.6886 0.00068652C30.6587 0.0721865 36.9207 5.85069 38.3051 14.3218C38.3868 14.646 38.5348 14.9491 38.7395 15.2116C38.9442 15.474 39.201 15.6899 39.4932 15.8452C43.2243 17.5515 45.0518 20.4188 44.9989 24.5561C44.9773 26.2322 45.0181 27.91 44.9893 29.5862C44.8987 34.8707 40.6044 38.5903 35.0627 37.92ZM38.5358 34.1598C42.7932 31.8222 41.4344 27.9482 41.5867 24.6357C41.7156 21.8179 40.7855 20.431 38.5358 19.5665V34.1598ZM6.48882 19.3219C2.39082 21.6432 3.47643 25.3978 3.3875 28.677C3.30738 31.5728 4.38734 33.1783 6.48882 33.8145V19.3219Z" fill="#E5282A"/>
</svg>
