<svg width="46" height="40" viewBox="0 0 46 40" fill="none" xmlns="http://www.w3.org/2000/svg">
<path d="M0 3.00442C0.0479111 2.88474 0.0838445 2.7531 0.131756 2.63343C0.550978 1.43668 1.37744 0.730607 2.64709 0.563063C2.85071 0.539128 3.06631 0.527161 3.26993 0.527161C16.4096 0.527161 29.5612 0.527161 42.7008 0.527161C43.0601 0.527161 43.4195 0.551095 43.7668 0.634867C45.0724 0.957988 45.9707 2.09489 45.9947 3.44721C46.0067 4.3328 45.9947 5.20642 45.9947 6.09201C45.9947 14.2418 45.9947 22.3916 45.9947 30.5415C45.9947 32.0494 45.1323 33.2102 43.7309 33.5453C43.4314 33.6171 43.108 33.6291 42.7966 33.6291C41.9582 33.641 41.1317 33.6291 40.2334 33.6291C40.3172 33.8325 40.3771 33.9761 40.449 34.1197C40.9401 35.125 41.4431 36.1302 41.9342 37.1355C42.4133 38.1168 42.1977 39.0503 41.3832 39.517C40.5568 39.9957 39.6345 39.7324 39.0356 38.8229C37.9576 37.2073 36.8676 35.5917 35.8016 33.9761C35.6339 33.7248 35.4662 33.6171 35.1548 33.6171C27.0578 33.6291 18.9608 33.6291 10.8638 33.6171C10.5524 33.6171 10.3847 33.7248 10.217 33.9761C9.12707 35.6276 8.02511 37.2671 6.92316 38.8947C6.42009 39.6367 5.66549 39.9119 4.91089 39.6367C3.95267 39.2896 3.53345 38.2485 4.00058 37.2791C4.50365 36.226 5.03067 35.1848 5.54571 34.1437C5.61758 34 5.67747 33.8445 5.78527 33.6171C5.53373 33.6171 5.33011 33.6171 5.13847 33.6171C4.47969 33.6171 3.82091 33.6171 3.16213 33.6171C1.55711 33.6051 0.527022 32.8272 0.0838445 31.2715C0.0718667 31.2356 0.0359333 31.1997 0.0119778 31.1638C0 21.7933 0 12.3988 0 3.00442ZM44.5573 28.5668C44.5573 28.3754 44.5573 28.2078 44.5573 28.0522C44.5573 19.9623 44.5573 11.8723 44.5573 3.7823C44.5573 2.54965 43.9824 1.96325 42.7487 1.96325C29.5731 1.96325 16.4096 1.96325 3.234 1.96325C2.02424 1.96325 1.43733 2.54965 1.43733 3.75836C1.43733 11.8603 1.43733 19.9742 1.43733 28.0762C1.43733 28.2317 1.43733 28.3993 1.43733 28.5788C15.8226 28.5668 30.1601 28.5668 44.5573 28.5668ZM44.5933 30.0508C30.16 30.0508 15.8107 30.0508 1.46129 30.0508C1.46129 30.3859 1.41338 30.6851 1.47327 30.9723C1.617 31.7861 2.23985 32.2049 3.234 32.2049C16.4096 32.2049 29.5851 32.2049 42.7607 32.2049C42.8924 32.2049 43.0362 32.2049 43.1679 32.193C43.7908 32.1451 44.3178 31.7502 44.4735 31.1398C44.5573 30.8047 44.5454 30.4457 44.5933 30.0508ZM8.67191 33.641C8.37247 33.641 8.14489 33.665 7.91731 33.641C7.53402 33.5932 7.34238 33.7368 7.17469 34.0958C6.62371 35.2806 6.02482 36.4534 5.43791 37.6262C5.39 37.7339 5.30616 37.8416 5.29418 37.9493C5.2822 38.045 5.29418 38.2126 5.35407 38.2485C5.42593 38.2963 5.56967 38.2485 5.66549 38.2006C5.72538 38.1767 5.74933 38.0809 5.79725 38.0211C6.70756 36.6688 7.60589 35.3165 8.5162 33.9641C8.55214 33.9043 8.58807 33.8086 8.67191 33.641ZM37.2749 33.653C38.3289 35.2207 39.3111 36.7047 40.3052 38.1647C40.3531 38.2485 40.5208 38.2485 40.6406 38.2844C40.6526 38.1408 40.7125 37.9732 40.6646 37.8535C40.0297 36.5371 39.3829 35.2207 38.7242 33.9163C38.6643 33.8086 38.5325 33.665 38.4127 33.653C38.0774 33.629 37.742 33.653 37.2749 33.653Z" fill="#E5282A"/>
<path d="M23.5344 31.1877C23.5463 31.5832 23.2376 31.8947 22.8458 31.9067C22.4539 31.9187 22.1333 31.6191 22.1096 31.2357C22.0858 30.8402 22.4183 30.4807 22.822 30.4807C23.202 30.4807 23.5225 30.8043 23.5344 31.1877Z" fill="#E5282A"/>
</svg>
